<?xml version="1.0" encoding="utf-8"?>
<!-- Generator: Adobe Illustrator 26.0.1, SVG Export Plug-In . SVG Version: 6.00 Build 0)  -->
<svg version="1.1" id="Layer_1" xmlns="http://www.w3.org/2000/svg" xmlns:xlink="http://www.w3.org/1999/xlink" x="0px" y="0px"
	 viewBox="0 0 24 24" style="enable-background:new 0 0 24 24;" xml:space="preserve">
<path d="M6,20c1.1,0,2-0.9,2-2v-7c0-1.1-0.9-2-2-2s-2,0.9-2,2v7C4,19.1,4.9,20,6,20z M16,15v3c0,1.1,0.9,2,2,2s2-0.9,2-2v-3
	c0-1.1-0.9-2-2-2S16,13.9,16,15z M12,20c1.1,0,2-0.9,2-2V6c0-1.1-0.9-2-2-2s-2,0.9-2,2v12C10,19.1,10.9,20,12,20z"/>
<path d="M-15.2,19.6c1.1,0,2-0.9,2-2v-7c0-1.1-0.9-2-2-2s-2,0.9-2,2v7C-17.2,18.7-16.3,19.6-15.2,19.6z M-5.2,13.2V17
	c0,1.4,0.9,2.6,2,2.6s2-1.2,2-2.6v-3.9c0-1.4-0.9-2.6-2-2.6S-5.2,11.8-5.2,13.2z M-23.1,14.6v3c0,1.1,0.9,2,2,2s2-0.9,2-2v-3
	c0-1.1-0.9-2-2-2S-23.1,13.5-23.1,14.6z M-9.2,19.6c1.1,0,2-0.9,2-2v-12c0-1.1-0.9-2-2-2s-2,0.9-2,2v12
	C-11.2,18.7-10.3,19.6-9.2,19.6z"/>
</svg>
